<svg width="128" height="128" viewBox="0 0 128 128" fill="none" xmlns="http://www.w3.org/2000/svg">
<path d="M75.5701 36H51.4299C36.1833 36 28.56 36 25.3097 41.1323C22.0593 46.2645 25.1537 53.4156 31.3425 67.7177L46.4257 102.575C53.7604 119.525 57.4277 128 63.5 128C66.1343 128 68.316 126.405 70.5409 123.215C71.7481 121.484 71.751 119.189 70.7901 117.302L65.6083 107.129C64.4807 104.915 63.9169 103.808 64.3981 102.992C64.8792 102.177 66.0962 102.177 68.5301 102.177H76.8173C79.2065 102.177 81.3715 100.732 82.3413 98.4911L87.8939 85.6592C89.2464 82.5336 87.8795 78.8741 84.838 77.4776L64.3937 68.0908C61.6882 66.8486 62.5517 62.6966 65.5155 62.6966H93.8656C96.2675 62.6966 98.453 61.2391 99.3796 58.9646C102.93 50.2498 104.197 45.0906 101.69 41.1323C98.44 36 90.8167 36 75.5701 36Z" fill="#F97316"/>
<path d="M64.0376 31.9904C58.4752 32.0154 53.8186 30.75 49.6859 27.6032C46.132 24.897 44.0061 21.2074 42.8301 16.8606C42.2658 14.7752 41.8997 12.6514 42.0244 10.4585C42.0623 9.79087 42.2689 9.43691 42.948 9.45419C47.2567 9.56108 51.3363 10.4719 54.8743 13.2256C55.2672 13.5315 55.3578 13.3408 55.4506 13.0368C55.6224 12.476 55.7483 11.9 55.9116 11.336C56.8107 8.23546 58.5485 5.65078 60.4819 3.18516C61.312 2.12709 62.2203 1.14776 63.1648 0.201709C63.4319 -0.0658481 63.6036 -0.0690493 63.8671 0.202988C67.1074 3.55769 69.9889 7.15883 71.2579 11.8801C71.2993 12.0344 71.3262 12.1925 71.3568 12.3493C71.5775 13.5002 71.6948 13.5329 72.5794 12.8575C74.4425 11.4353 76.5806 10.671 78.7958 10.1295C80.5325 9.70446 82.2788 9.33769 84.0857 9.44522C84.7 9.48171 84.9965 9.72047 84.9996 10.3766C85.0325 16.5048 83.2397 21.9148 78.9615 26.1855C76.1014 29.0409 72.6197 30.7723 68.6906 31.4899C66.9736 31.8048 65.262 32.0525 64.0376 31.9904Z" fill="#22C55E"/>
</svg>
