<svg width="192" height="48" viewBox="0 0 192 48" fill="none" xmlns="http://www.w3.org/2000/svg">
<path d="M10.9121 32.2954C9.75668 32.2954 8.80455 32.0391 8.05568 31.5267C7.32821 30.9929 6.73981 30.1495 6.29049 28.9964C5.86257 27.8221 5.48813 26.1779 5.16719 24.0641L5.07091 23.4555L8.89013 22.847L9.43573 26.0178C9.52132 26.5089 9.6283 26.8826 9.75668 27.1388C9.88506 27.3737 10.0348 27.5338 10.206 27.6192C10.3986 27.7046 10.6339 27.7473 10.9121 27.7473H11.1046L11.3614 30.0214L11.1046 32.2954H10.9121ZM0 36.0747L1.98985 35.5302C2.13962 35.5089 2.2787 35.4769 2.40708 35.4342C3.43409 35.1352 4.21506 34.8363 4.74996 34.5374C5.28487 34.2598 5.6593 33.8861 5.87326 33.4164C6.08723 32.968 6.14072 32.3594 6.03374 31.5907L4.74996 22.3986L8.76175 21.758L9.69249 28.484L9.82087 29.3488L10.0455 31.0463C10.2809 32.6904 10.1846 34.0676 9.75668 35.1779C9.32875 36.3096 8.62268 37.2278 7.63845 37.9324C6.65423 38.6584 5.31696 39.2669 3.62666 39.758L3.04896 39.9181L1.05911 40.4947L0 36.0747Z" fill="#18181B"/>
<path d="M10.9033 27.7473H16.5519C17.4078 27.7473 17.9854 27.6299 18.285 27.395C18.5845 27.1601 18.7022 26.7865 18.638 26.274L18.285 22.3345L22.361 21.9502L22.714 25.8897C22.821 27.1281 22.6284 28.2384 22.1363 29.2206C21.6656 30.2028 20.9488 30.9609 19.986 31.4947C19.0232 32.0285 17.8785 32.2954 16.5519 32.2954H10.9033V27.7473ZM24.7681 32.2954C22.928 32.2954 21.4837 31.7829 20.4353 30.758C19.3869 29.7331 18.7878 28.2278 18.638 26.242L22.714 25.9217C22.7568 26.4342 22.8317 26.8185 22.9387 27.0747C23.0671 27.331 23.2596 27.5125 23.5164 27.6192C23.7945 27.7046 24.2118 27.7473 24.7681 27.7473L25.0248 30.0214L24.7681 32.2954ZM20.2428 18.6192H16.0384V14.9039H20.2428V18.6192ZM16.4235 14.9039V18.6192H12.1871V14.9039H16.4235Z" fill="#18181B"/>
<path d="M24.4431 27.7473H30.0917C30.9475 27.7473 31.5252 27.6299 31.8248 27.395C32.1243 27.1601 32.242 26.7865 32.1778 26.274L31.8248 22.3345L35.9008 21.9502L36.2538 25.8897C36.3608 27.1281 36.1682 28.2384 35.6761 29.2206C35.2054 30.2028 34.4886 30.9609 33.5258 31.4947C32.563 32.0285 31.4183 32.2954 30.0917 32.2954H24.4431V27.7473ZM38.3078 32.2954C36.4678 32.2954 35.0235 31.7829 33.9751 30.758C32.9267 29.7331 32.3276 28.2278 32.1778 26.242L36.2538 25.9217C36.2966 26.4342 36.3715 26.8185 36.4785 27.0747C36.6068 27.331 36.7994 27.5125 37.0562 27.6192C37.3343 27.7046 37.7515 27.7473 38.3078 27.7473L38.5646 30.0214L38.3078 32.2954ZM25.3417 38.669H28.9684V42H25.3417V38.669ZM22.7742 34.9217H27.3637V38.9573H22.8063L22.7742 34.9217ZM26.8823 34.9217H31.4718L31.4397 38.9573H26.9144L26.8823 34.9217Z" fill="#18181B"/>
<path d="M37.9829 27.7473H39.1704C40.9249 27.7473 42.4761 27.7046 43.8241 27.6192C45.172 27.5125 46.4558 27.2883 47.6754 26.9466L55.2176 25.153L55.0892 26.21L48.5098 22.879C47.9963 22.6228 47.4721 22.4947 46.9372 22.4947C46.4023 22.4947 45.8888 22.6335 45.3967 22.911C44.926 23.1886 44.5515 23.573 44.2734 24.0641L43.7278 25.089L40.1974 22.847L40.8072 21.726C41.5133 20.4875 42.3905 19.548 43.4389 18.9075C44.5087 18.2456 45.6534 17.9146 46.873 17.9146C48.0926 17.8932 49.3015 18.2242 50.4997 18.9075L58.5875 23.5836L58.0419 28.8363L48.7024 31.3345C47.2261 31.7402 45.7069 32.0071 44.145 32.1352C42.6045 32.242 40.9463 32.2954 39.1704 32.2954H37.9829V27.7473ZM46.8088 38.669H50.4355V42H46.8088V38.669ZM44.2413 34.9217H48.8308V38.9573H44.2734L44.2413 34.9217ZM48.3494 34.9217H52.9389L52.9068 38.9573H48.3815L48.3494 34.9217Z" fill="#18181B"/>
<path d="M75.5822 27.7473H83.3169C84.1514 27.7473 84.7184 27.6299 85.0179 27.395C85.3175 27.1601 85.4458 26.7865 85.403 26.274L85.05 22.3345L89.0939 21.9502L89.4469 25.8897C89.5753 27.1281 89.3934 28.2384 88.9013 29.2206C88.4306 30.2028 87.7031 30.9609 86.7189 31.4947C85.7561 32.0285 84.6221 32.2954 83.3169 32.2954H75.5822V27.7473ZM91.5331 32.2954C89.693 32.2954 88.2487 31.7829 87.2003 30.758C86.1519 29.7331 85.5528 28.2384 85.403 26.274L89.4469 25.8897C89.5111 26.4021 89.5967 26.7865 89.7037 27.0427C89.8321 27.2989 90.0246 27.4804 90.2814 27.5872C90.5595 27.6939 90.9768 27.7473 91.5331 27.7473H91.8861L92.1428 30.0214L91.8861 32.2954H91.5331ZM75.7426 32.2954C73.3035 32.2954 71.4634 32.274 70.2224 32.2313C69.0028 32.1886 68.04 32.1032 67.3339 31.9751C66.6278 31.847 65.9539 31.6548 65.312 31.3986L65.2799 31.3665C63.8035 30.726 62.7872 29.7117 62.2309 28.3238C61.6746 26.9359 61.6318 25.3665 62.1025 23.6157L63.3221 18.9395L67.2376 20.1246L65.986 24.9609C65.8148 25.6014 65.7934 26.0819 65.9218 26.4021C66.0501 26.7224 66.3711 26.9893 66.8846 27.2028L66.9488 27.2349C67.2483 27.363 67.6442 27.4698 68.1363 27.5552C68.6284 27.6192 69.4521 27.6726 70.6075 27.7153C71.7843 27.7367 73.496 27.7473 75.7426 27.7473L75.9352 30.0214L75.7426 32.2954ZM79.8828 20.3808H75.6785V16.6655H79.8828V20.3808ZM76.0636 16.6655V20.3808H71.8271V16.6655H76.0636Z" fill="#18181B"/>
<path d="M91.5466 27.7473H94.082C94.8309 27.7473 95.4193 27.6619 95.8472 27.4911C96.2966 27.3203 96.5747 27.0214 96.6817 26.5943C96.8101 26.1673 96.778 25.5801 96.5854 24.8327L95.3016 20.0605L99.2171 18.9075L100.501 23.6797C100.95 25.3665 100.961 26.8612 100.533 28.1637C100.105 29.4662 99.3241 30.4804 98.1901 31.2064C97.0561 31.9324 95.6868 32.2954 94.082 32.2954H91.5466V27.7473ZM93.6969 12.0854H97.9013V16.2811H93.6969V12.0854Z" fill="#18181B"/>
<path d="M104.801 10.2918L108.877 10.0996L109.711 32.2313L105.668 32.4235L104.801 10.2918Z" fill="#18181B"/>
<path d="M121.268 32.2954C120.112 32.2954 119.16 32.0391 118.411 31.5267C117.684 30.9929 117.095 30.1495 116.646 28.9964C116.218 27.8221 115.844 26.1779 115.523 24.0641L115.427 23.4555L119.246 22.847L119.791 26.0178C119.877 26.5089 119.984 26.8826 120.112 27.1388C120.241 27.3737 120.39 27.5338 120.562 27.6192C120.754 27.7046 120.99 27.7473 121.268 27.7473H121.46L121.717 30.0214L121.46 32.2954H121.268ZM110.356 36.0747L112.345 35.5302C112.495 35.5089 112.634 35.4769 112.763 35.4342C113.79 35.1352 114.571 34.8363 115.106 34.5374C115.64 34.2598 116.015 33.8861 116.229 33.4164C116.443 32.968 116.496 32.3594 116.389 31.5907L115.106 22.3986L119.117 21.758L120.048 28.484L120.176 29.3488L120.401 31.0463C120.637 32.6904 120.54 34.0676 120.112 35.1779C119.684 36.3096 118.978 37.2278 117.994 37.9324C117.01 38.6584 115.673 39.2669 113.982 39.758L113.405 39.9181L111.415 40.4947L110.356 36.0747Z" fill="#18181B"/>
<path d="M121.259 27.7473H127.389C128.822 27.7473 129.817 27.7046 130.374 27.6192C130.93 27.5338 131.283 27.3737 131.433 27.1388C131.604 26.8826 131.657 26.4448 131.593 25.8256L131.176 20.573C131.069 19.5053 130.78 18.6939 130.31 18.1388C129.839 17.5836 129.229 17.3274 128.48 17.3701C127.988 17.3701 127.571 17.5089 127.228 17.7865C126.908 18.0641 126.661 18.4164 126.49 18.8434C126.319 19.2705 126.255 19.7402 126.298 20.2527C126.341 20.7651 126.533 21.1708 126.875 21.4697C127.239 21.7687 127.742 21.9181 128.384 21.9181C129.304 21.9181 130.128 21.8861 130.855 21.8221C131.583 21.758 132.16 21.6833 132.588 21.5979L133.262 25.8256C133.005 25.8897 132.449 25.9537 131.593 26.0178C130.759 26.0819 129.689 26.1139 128.384 26.1139C126.651 26.1139 125.26 25.6228 124.212 24.6406C123.163 23.6584 122.628 22.3025 122.607 20.573C122.585 19.2918 122.778 18.1174 123.185 17.0498C123.613 15.9609 124.254 15.0854 125.11 14.4235C125.966 13.7616 127.025 13.3772 128.288 13.2705C129.507 13.1851 130.609 13.4306 131.593 14.0071C132.599 14.5623 133.412 15.3843 134.032 16.4733C134.653 17.5409 135.006 18.79 135.092 20.2206L135.509 25.7936C135.616 27.3096 135.445 28.5374 134.995 29.4769C134.546 30.4164 133.701 31.121 132.46 31.5907C131.24 32.0605 129.529 32.2954 127.325 32.2954H121.259V27.7473ZM126.522 6H130.727V10.1957H126.522V6Z" fill="#18181B"/>
<path d="M171.522 13.5H162.433C156.692 13.5 153.822 13.5 152.599 15.4246C151.375 17.3492 152.54 20.0308 154.87 25.3941L160.549 38.4655C163.31 44.8218 164.691 48 166.977 48C167.969 48 168.79 47.4019 169.628 46.2056C170.083 45.5565 170.084 44.6958 169.722 43.9883L167.771 40.1733C167.346 39.3431 167.134 38.928 167.315 38.6221C167.496 38.3163 167.955 38.3163 168.871 38.3163H171.991C172.891 38.3163 173.706 37.7746 174.071 36.9342L176.161 32.1222C176.671 30.9501 176.156 29.5778 175.011 29.0541L167.314 25.5341C166.295 25.0682 166.62 23.5112 167.736 23.5112H178.41C179.314 23.5112 180.137 22.9647 180.486 22.1117C181.823 18.8437 182.3 16.909 181.356 15.4246C180.132 13.5 177.262 13.5 171.522 13.5Z" fill="#F97316"/>
<path d="M167.179 11.9964C165.085 12.0058 163.332 11.5312 161.776 10.3512C160.438 9.33638 159.637 7.95279 159.194 6.32274C158.982 5.54072 158.844 4.74428 158.891 3.92193C158.905 3.67158 158.983 3.53884 159.239 3.54532C160.861 3.58541 162.397 3.92697 163.729 4.9596C163.877 5.07432 163.911 5.0028 163.946 4.88878C164.011 4.67852 164.058 4.46249 164.12 4.25102C164.458 3.0883 165.112 2.11904 165.84 1.19443C166.153 0.79766 166.495 0.43041 166.85 0.0756409C166.951 -0.024693 167.016 -0.0258935 167.115 0.0761206C168.335 1.33413 169.42 2.68456 169.897 4.45505C169.913 4.51289 169.923 4.57218 169.935 4.63099C170.018 5.06257 170.062 5.07482 170.395 4.82157C171.096 4.28822 171.901 4.00162 172.735 3.79856C173.389 3.63917 174.047 3.50164 174.727 3.54196C174.958 3.55564 175.07 3.64517 175.071 3.89121C175.084 6.18931 174.409 8.21806 172.798 9.81957C171.721 10.8903 170.41 11.5396 168.931 11.8087C168.284 11.9268 167.64 12.0197 167.179 11.9964Z" fill="#22C55E"/>
</svg>
